# xmcd CD database file
#
# Track frame offsets:
#	150
#	29242
#	73927
#	109720
#	142130
#	172198
#	211208
#	262251
#	290938
#
# Disc length: 4640 seconds
#
# Revision: 0
# Processed by: cddbd v1.5.2PL0 Copyright (c) Steve Scherf et al.
# Submitted via: CDex 1.70beta1
#
DISCID=a4121e09
DTITLE=John McLeod's Rex Hotel Jazz Orchestra - Our First Set
DYEAR=2010
DGENRE=Jazz
TTITLE0=The Great Danes
TTITLE1=B.S. Blues
TTITLE2=I'm In The Mood For Love
TTITLE3=Bewitched, Bothered and Bewildered
TTITLE4=Laura
TTITLE5=Marta's Vineyard
TTITLE6=Monkey On The Roof
TTITLE7=Song for Rachel
TTITLE8=Sometimes You Feel Like That
EXTD=YEAR: 2010
EXTT0=
EXTT1=
EXTT2=
EXTT3=
EXTT4=
EXTT5=
EXTT6=
EXTT7=
EXTT8=
PLAYORDER=
